<svg width="30" height="30" viewBox="0 0 30 30" fill="none" xmlns="http://www.w3.org/2000/svg">
<g clip-path="url(#clip0_176_2)">
<rect width="30" height="30" rx="15" fill="url(#paint0_linear_176_2)"/>
<path d="M14 13C14.2458 13.6256 14.5058 14.2892 14.7418 14.9206C16.9188 20.7178 18.7593 26.589 20.7068 32.4943C21.6857 35.4558 22.6654 38.4076 23.7977 41.42C24.37 42.9302 24.9658 44.4389 25.7139 46.0221C26.0871 46.8065 26.4885 47.6062 27.0582 48.5113C27.7328 49.4284 27.9742 50.3138 30.2949 51.8116C30.9355 52.1532 31.55 52.4789 32.8369 52.6548C34.0149 52.8167 35.5813 52.5728 36.791 51.8875C37.966 51.2322 38.6203 50.4988 39.1181 49.8431C39.5251 49.3015 39.8109 48.7877 40.0401 48.3038C36.3467 46.7679 32.6533 45.2321 28.9599 43.6962C29.041 43.5685 29.1655 43.3563 29.3988 43.0639C29.6835 42.7109 30.1124 42.2101 30.9919 41.7258C31.8963 41.2153 33.1315 41.0325 33.9697 41.1605C34.8844 41.2938 35.234 41.5172 35.5431 41.6915C36.0984 42.065 36.016 42.1597 35.9387 42.1434C35.8435 42.1291 35.6517 41.9981 35.4664 41.8534C35.0656 41.5287 34.6115 41.0695 34.1648 40.5829C33.2543 39.5822 32.3356 38.4289 31.429 37.2424C29.614 34.8589 27.8453 32.3474 26.0742 29.8127C22.5351 24.7491 19.0333 19.5809 15.2663 14.6293C14.8541 14.0926 14.419 13.5256 14 13Z" fill="white"/>
<circle cx="15" cy="15" r="4" fill="white"/>
</g>
<defs>
<linearGradient id="paint0_linear_176_2" x1="15" y1="0" x2="15" y2="30" gradientUnits="userSpaceOnUse">
<stop/>
<stop offset="1" stop-color="#666666"/>
</linearGradient>
<clipPath id="clip0_176_2">
<rect width="30" height="30" rx="15" fill="white"/>
</clipPath>
</defs>
</svg>
